<?xml version="1.0" standalone="no"?>
<!DOCTYPE svg PUBLIC "-//W3C//DTD SVG 20010904//EN"
 "http://www.w3.org/TR/2001/REC-SVG-20010904/DTD/svg10.dtd">
<svg version="1.0" xmlns="http://www.w3.org/2000/svg"
 viewBox="0 0 980.000000 920.000000"
 preserveAspectRatio="xMidYMid meet">

<g transform="translate(0.000000,920.000000) scale(0.100000,-0.100000)"
fill="#2dc44d" stroke="none">
<path d="M4794 9033 c-318 -495 -491 -856 -502 -1049 -13 -228 128 -461 340
-562 99 -48 161 -62 271 -62 172 0 304 56 428 180 168 168 220 389 144 615
-36 108 -205 449 -305 615 -101 167 -263 420 -270 420 -3 0 -51 -71 -106 -157z"/>
<path d="M7259 8443 c-212 -324 -411 -692 -479 -888 -78 -222 -35 -443 119
-607 80 -86 154 -135 261 -171 73 -26 100 -30 190 -30 179 1 320 62 443 193
161 170 206 389 128 615 -41 116 -177 392 -281 569 -100 171 -279 446 -290
446 -4 0 -45 -57 -91 -127z"/>
<path d="M2336 7796 c-221 -345 -391 -663 -458 -856 -30 -87 -33 -105 -33
-210 1 -131 20 -201 83 -305 106 -175 318 -295 522 -295 178 0 371 94 478 232
133 173 164 367 93 578 -40 117 -163 370 -271 553 -108 186 -290 467 -300 467
-5 0 -56 -74 -114 -164z"/>
<path d="M4288 5518 l-3 -1223 -610 0 -610 0 -3 613 -2 612 -610 0 -610 0 -2
-612 -3 -613 -370 -6 c-399 -5 -399 -6 -515 -64 -147 -75 -248 -193 -309 -358
l-26 -72 -3 -1282 -3 -1283 -304 0 -305 0 0 -610 0 -610 4900 0 4900 0 0 610
0 610 -305 0 -304 0 -3 1283 -3 1282 -22 65 c-65 190 -207 335 -393 402 -63
22 -79 23 -435 28 l-370 5 -3 918 -2 917 -610 0 -610 0 0 -920 0 -920 -612 2
-613 3 -3 1223 -2 1222 -610 0 -610 0 -2 -1222z m3672 -3368 l0 -920 -3060 0
-3060 0 0 920 0 920 3060 0 3060 0 0 -920z"/>
</g>
</svg>
