<?xml version="1.0" standalone="no"?>
<!DOCTYPE svg PUBLIC "-//W3C//DTD SVG 20010904//EN"
 "http://www.w3.org/TR/2001/REC-SVG-20010904/DTD/svg10.dtd">
<svg version="1.0" xmlns="http://www.w3.org/2000/svg"
 viewBox="0 0 24.000000 24.000000"
 preserveAspectRatio="xMidYMid meet">

<g transform="translate(0.000000,24.000000) scale(0.100000,-0.100000)"
fill="#FFFF" stroke="none">
<path d="M71 206 c-87 -48 -50 -186 49 -186 51 0 100 49 100 99 0 75 -83 124
-149 87z m45 -61 c-4 -11 2 -15 24 -15 17 0 30 -4 30 -10 0 -5 -13 -10 -30
-10 -22 0 -28 -4 -24 -15 9 -21 -10 -19 -31 5 -17 19 -17 21 0 40 21 24 40 26
31 5z"/>
</g>
</svg>
