<?xml version="1.0" standalone="no"?>
<!DOCTYPE svg PUBLIC "-//W3C//DTD SVG 20010904//EN"
 "http://www.w3.org/TR/2001/REC-SVG-20010904/DTD/svg10.dtd">
<svg version="1.0" xmlns="http://www.w3.org/2000/svg"
 viewBox="0 0 980.000000 916.000000"
 preserveAspectRatio="xMidYMid meet">

<g transform="translate(0.000000,916.000000) scale(0.100000,-0.100000)"
fill="#2dc44d" stroke="none">
<path d="M4675 9134 c-745 -131 -1227 -874 -1041 -1606 123 -484 503 -850 996
-960 88 -19 133 -23 275 -22 147 0 185 4 281 26 445 104 795 417 948 846 91
255 94 565 10 827 -131 404 -450 722 -850 848 -178 56 -437 73 -619 41z"/>
<path d="M4577 5883 c-4 -3 -7 -224 -7 -490 l0 -483 -1795 0 -1795 0 0 -820 0
-820 325 0 325 0 0 490 0 490 3270 0 3270 0 0 -490 0 -490 325 0 325 0 0 820
0 820 -1795 0 -1795 0 -2 488 -3 487 -321 3 c-176 1 -323 -1 -327 -5z"/>
<path d="M1136 2609 c-559 -77 -994 -487 -1113 -1049 -24 -114 -24 -391 1
-500 73 -329 246 -601 503 -794 242 -182 513 -264 833 -253 203 6 341 40 515
126 275 135 471 331 606 606 86 174 120 312 126 515 11 320 -71 591 -253 833
-190 254 -459 427 -774 498 -100 23 -340 33 -444 18z"/>
<path d="M4725 2609 c-457 -63 -854 -369 -1030 -794 -241 -581 -39 -1242 486
-1591 215 -143 453 -214 719 -214 506 0 947 276 1178 735 35 71 89 237 107
335 27 136 25 352 -4 487 -108 517 -497 912 -1006 1023 -115 25 -338 35 -450
19z"/>
<path d="M8360 2614 c-14 -2 -56 -9 -95 -15 -236 -38 -489 -167 -673 -343
-365 -350 -496 -877 -337 -1353 145 -435 490 -749 945 -863 122 -31 359 -38
500 -16 562 89 1001 536 1086 1107 19 133 15 307 -11 434 -107 521 -511 927
-1029 1031 -70 14 -337 27 -386 18z"/>
</g>
</svg>
