<?xml version="1.0" standalone="no"?>
<!DOCTYPE svg PUBLIC "-//W3C//DTD SVG 20010904//EN"
 "http://www.w3.org/TR/2001/REC-SVG-20010904/DTD/svg10.dtd">
<svg version="1.0" xmlns="http://www.w3.org/2000/svg"
 viewBox="0 0 980.000000 942.000000"
 preserveAspectRatio="xMidYMid meet">

<g transform="translate(0.000000,942.000000) scale(0.100000,-0.100000)"
fill="#2dc44d" stroke="none">
<path d="M6125 9410 c-75 -10 -165 -44 -230 -85 -67 -42 -157 -142 -189 -207
-60 -125 -56 214 -56 -4270 l0 -4098 -560 0 -560 0 -2 1853 -3 1852 -26 71
c-62 169 -181 287 -349 345 -87 30 -275 33 -365 5 -171 -51 -304 -175 -367
-341 l-23 -60 -3 -1862 -2 -1863 -560 0 -559 0 -3 943 c-4 1046 1 975 -71
1111 -66 125 -216 236 -355 265 -76 16 -238 14 -305 -4 -190 -49 -348 -209
-392 -396 -12 -55 -15 -200 -15 -991 l0 -928 -389 0 c-353 0 -395 -2 -450 -19
-82 -26 -138 -60 -194 -120 -185 -198 -89 -497 187 -584 l71 -22 4545 0 4545
0 71 22 c276 87 372 386 187 584 -56 60 -112 94 -194 120 -51 16 -93 19 -260
19 l-199 0 0 2923 c0 1818 -4 2954 -10 3006 -12 107 -31 164 -80 240 -79 122
-206 212 -340 241 -86 19 -281 9 -353 -18 -149 -54 -273 -178 -330 -327 l-22
-60 -5 -3000 -5 -3000 -557 -3 -558 -2 -2 4112 -3 4113 -26 71 c-95 260 -346
404 -634 364z"/>
</g>
</svg>
