<?xml version="1.0" standalone="no"?>
<!DOCTYPE svg PUBLIC "-//W3C//DTD SVG 20010904//EN"
 "http://www.w3.org/TR/2001/REC-SVG-20010904/DTD/svg10.dtd">
<svg version="1.0" xmlns="http://www.w3.org/2000/svg"  viewBox="0 0 874.000000 848.000000" preserveAspectRatio="xMidYMid meet">
<g transform="translate(0.000000,848.000000) scale(0.100000,-0.100000)"
fill="#FFFFFF" stroke="none">
<path d="M4528 8464 c-340 -61 -608 -296 -732 -642 -47 -132 -67 -260 -76
-497 -12 -301 -46 -479 -136 -713 -291 -755 -999 -1312 -1815 -1426 l-46 -7
-6 -1267 c-4 -697 -7 -1862 -7 -2590 l0 -1322 2718 3 c2530 2 2721 4 2779 20
136 37 328 153 452 271 95 92 145 158 215 283 l57 102 401 1783 c375 1674 400
1790 405 1904 11 254 -48 474 -184 683 -50 76 -215 239 -285 279 -93 55 -207
100 -313 123 -99 21 -116 22 -1222 28 -617 4 -1125 9 -1128 13 -4 3 7 48 23
100 149 465 219 976 193 1411 -30 497 -100 784 -248 1005 -228 344 -650 528
-1045 456z m283 -560 c122 -36 245 -135 333 -267 79 -120 90 -160 131 -462 34
-245 29 -678 -10 -880 -57 -301 -164 -635 -276 -857 -58 -116 -83 -194 -83
-268 -1 -81 23 -132 76 -167 89 -60 14 -57 1568 -63 l1425 -5 57 -23 c142 -57
242 -218 225 -362 -9 -77 -856 -3822 -872 -3858 -23 -49 -98 -125 -152 -152
l-48 -25 -2487 -3 -2488 -2 0 2082 0 2083 78 34 c143 63 540 268 672 347 479
288 810 630 1028 1062 200 395 280 739 287 1242 2 160 6 215 19 250 54 146
180 257 334 294 77 19 118 19 183 0z"/>
<path d="M253 5142 c-131 -46 -216 -147 -243 -287 -8 -44 -10 -661 -8 -2320
l3 -2260 27 -57 c32 -69 106 -145 169 -176 80 -39 141 -43 532 -40 416 3 415
3 491 76 54 52 76 104 76 182 0 106 -53 189 -150 234 -42 19 -66 21 -329 24
l-284 4 6 1440 c4 793 7 1717 7 2055 l0 613 278 0 c317 0 343 5 412 72 23 22
50 58 61 81 23 51 25 162 5 211 -19 47 -82 113 -130 139 -40 21 -51 22 -456
24 -379 3 -419 1 -467 -15z"/>
</g>
</svg>
